Coordinates
nRows=123
nColumns=2
inDegrees=yes
endheader
time	ankle_angle_r	
2.79133	 -0.036555	
2.8629	  0.006138	
2.93448	 -0.014347	
3.00605	 -0.052848	
3.07762	 -0.059366	
3.14919	 -0.032000	
3.22077	 -0.031463	
3.29234	 -0.027189	
3.36391	  0.005321	
3.43548	 -0.011191	
3.50706	 -0.041218	
3.57863	 -0.002580	
3.6502	  0.040954	
3.72177	 -0.005477	
3.79335	 -0.036335	
3.86492	 -0.022085	
3.93649	 -0.065743	
4.00806	 -0.084380	
4.07964	 -0.062027	
4.15121	 -0.054840	
4.22278	 -0.034153	
4.29435	 -0.040058	
4.36593	 -0.070355	
4.4375	 -0.038386	
4.50907	 -0.014544	
4.58065	 -0.069922	
4.65222	 -0.053216	
4.72379	  0.001534	
4.79536	 -0.040872	
4.86694	 -0.090398	
4.93851	 -0.085686	
5.01008	 -0.074249	
5.08165	 -0.100188	
5.15323	 -0.093176	
5.2248	 -0.014818	
5.29637	  0.016584	
5.36794	 -0.054444	
5.43952	 -0.060907	
5.51109	  0.032795	
5.58266	 -0.008572	
5.65423	 -0.069459	
5.72581	  0.029604	
5.79738	  0.116547	
5.86895	  0.109270	
5.94052	  0.080204	
6.0121	  0.104696	
6.08367	  0.137016	
6.15524	  0.112521	
6.22681	  0.087028	
6.29839	  0.097384	
6.36996	  0.103879	
6.44153	  0.068616	
6.5131	  0.052466	
6.58468	  0.045483	
6.65625	  0.008352	
6.72782	  0.001783	
6.7994	 -0.007395	
6.87097	 -0.019081	
6.94254	 -0.025121	
7.01411	 -0.034669	
7.08569	  0.015524	
7.15726	  0.028384	
7.22883	 -0.057877	
7.3004	 -0.105433	
7.37198	 -0.047032	
7.44355	  0.004741	
7.51512	 -0.012646	
7.58669	 -0.018228	
7.65827	 -0.002962	
7.72984	 -0.023572	
7.80141	 -0.063444	
7.87298	 -0.041085	
7.94456	 -0.016056	
8.01613	 -0.051781	
8.0877	 -0.050030	
8.15927	 -0.037783	
8.23085	 -0.054138	
8.30242	 -0.051086	
8.37399	 -0.014274	
8.44556	  0.034096	
8.51714	  0.015281	
8.58871	 -0.009393	
8.66028	  0.019057	
8.73185	  0.017291	
8.80343	  0.016655	
8.875	  0.000186	
8.94657	 -0.066170	
9.01815	 -0.041364	
9.08972	  0.016096	
9.16129	 -0.011479	
9.23286	 -0.003097	
9.30444	  0.005438	
9.37601	 -0.063740	
9.44758	 -0.116681	
9.51915	 -0.113714	
9.59073	 -0.069922	
9.6623	 -0.069227	
9.73387	 -0.117650	
9.80544	 -0.108161	
9.87702	 -0.050136	
9.94859	 -0.045850	
10.0202	 -0.062003	
10.0917	 -0.001827	
10.1633	 -0.005427	
10.2349	 -0.068355	
10.3065	 -0.076486	
10.378	 -0.099010	
10.4496	 -0.103468	
10.5212	 -0.111246	
10.5927	 -0.121188	
10.6643	 -0.094228	
10.7359	 -0.133926	
10.8075	 -0.170990	
10.879	 -0.101074	
10.9506	 -0.092588	
11.0222	 -0.177971	
11.0937	 -0.143782	
11.1653	 -0.079054	
11.2369	 -0.110220	
11.3085	 -0.104994	
11.38	 -0.069557	
11.4516	 -0.073295	
11.5232	 -0.104318	
